<?xml version="1.0" encoding="utf-8"?>
<!-- Generator: Adobe Illustrator 26.0.1, SVG Export Plug-In . SVG Version: 6.00 Build 0)  -->
<svg version="1.1" id="Layer_1" xmlns="http://www.w3.org/2000/svg" xmlns:xlink="http://www.w3.org/1999/xlink" x="0px" y="0px"
	 viewBox="0 0 40 40" style="enable-background:new 0 0 40 40;" xml:space="preserve">
<style type="text/css">
	.Graphic_x0020_Style_x0020_7{opacity:0.2;}
	.st0{fill:none;}
	.st1{opacity:0.2;}
	.st2{fill:#BB600E;}
	.st3{opacity:0.35;fill:url(#SVGID_1_);}
	.st4{opacity:0.35;fill:url(#SVGID_00000178203123420200268540000008909835638907290302_);}
	.st5{fill:#F98012;}
	.st6{opacity:0.35;fill:url(#SVGID_00000152251602516597510700000004791752777177675162_);}
	.st7{opacity:0.35;fill:url(#SVGID_00000022560281178447049950000001224268676115759244_);}
	.st8{fill:#FA9941;}
	.st9{opacity:0.35;fill:url(#SVGID_00000057124982354296574870000008140669260748411019_);}
	.st10{opacity:0.35;fill:url(#SVGID_00000183241059659213376900000000855021961829028763_);}
	.st11{opacity:0.35;fill:url(#SVGID_00000087413552306383853360000002816675362583267995_);}
	.st12{opacity:0.35;fill:url(#SVGID_00000118373533663940610540000001221115817684911770_);}
	.st13{opacity:0.35;fill:url(#SVGID_00000157279202521441069530000009877204339957212586_);}
	.st14{opacity:0.35;fill:url(#SVGID_00000156551351712928512210000003911494406641434013_);}
	.st15{opacity:0.35;fill:url(#SVGID_00000116947851148395573530000009517167543232282502_);}
	.st16{opacity:0.35;fill:url(#SVGID_00000124162786040123077470000001714125417872899753_);}
	.st17{opacity:0.35;fill:url(#SVGID_00000124865125457336733140000013966292443556124603_);}
	.st18{opacity:0.35;fill:url(#SVGID_00000150786467066246828350000009565706180398711231_);}
	.st19{opacity:0.35;fill:url(#SVGID_00000183210904619560826200000005347451719729375381_);}
	.st20{opacity:0.35;fill:url(#SVGID_00000103245015649028826180000015669400343124765091_);}
	.st21{fill:#00607D;}
	.st22{opacity:0.35;fill:url(#SVGID_00000167390207678875020770000007749016378546006948_);}
	.st23{opacity:0.35;fill:url(#SVGID_00000121992466304060393020000012298430898449126073_);}
	.st24{fill:#0080A6;}
	.st25{opacity:0.35;fill:url(#SVGID_00000083088720486589464120000001017750692338415270_);}
	.st26{opacity:0.35;fill:url(#SVGID_00000009581539932546140980000016286830058691136911_);}
	.st27{opacity:0.35;fill:url(#SVGID_00000172422791762569558900000005454302279705520300_);}
	.st28{opacity:0.35;fill:url(#SVGID_00000177460412832553075760000012282085448940481705_);}
	.st29{opacity:0.35;fill:url(#SVGID_00000031922235943464720460000012532157068586637698_);}
	.st30{opacity:0.35;fill:url(#SVGID_00000116227857933969258240000014249811934725828011_);}
</style>
<g>
	<rect x="0" y="0" transform="matrix(-1 -2.308657e-07 2.308657e-07 -1 40 40)" class="st0" width="40" height="40"/>
	<g>
		<g>
			<polygon class="Graphic_x0020_Style_x0020_7" points="29.4,17.9 25.7,17.9 25.7,21.6 25.7,24.6 22.4,28.1 20.4,28.1 17.1,24.9 
				17.1,17.9 16.2,18.8 16.2,23 12.9,26.3 12,26.3 8.7,23 8.7,17.9 7.8,18.8 7.8,24.9 4.5,28.1 4.5,17.9 0,22.4 0,40 16.9,40 
				29.5,28.1 26.1,28.1 26.1,24.9 29.4,24.9 			"/>
			<polygon class="st1" points="22.4,14.6 20.1,17.6 20.3,17.8 20.4,24.9 22.4,24.9 			"/>
			<polygon class="st1" points="12.9,17.9 12,18.8 12,23 12.9,23 			"/>
		</g>
		<g>
			<g>
				<polygon class="st2" points="7.8,24.9 4.5,28.1 4.5,17.9 7.8,17.9 				"/>
				<linearGradient id="SVGID_1_" gradientUnits="userSpaceOnUse" x1="4.4955" y1="22.9995" x2="7.024" y2="22.9995">
					<stop  offset="0" style="stop-color:#FFFFFF"/>
					<stop  offset="0.9941" style="stop-color:#000000;stop-opacity:0"/>
				</linearGradient>
				<polygon class="st3" points="7.8,24.9 4.5,28.1 4.5,17.9 7.8,17.9 				"/>
				
					<linearGradient id="SVGID_00000111183961969524952710000009195600352935380154_" gradientUnits="userSpaceOnUse" x1="6.153" y1="16.8729" x2="6.153" y2="25.4767">
					<stop  offset="5.922192e-03" style="stop-color:#000000"/>
					<stop  offset="1" style="stop-color:#FFFFFF;stop-opacity:0"/>
				</linearGradient>
				<polygon style="opacity:0.35;fill:url(#SVGID_00000111183961969524952710000009195600352935380154_);" points="7.8,24.9 
					4.5,28.1 4.5,17.9 7.8,17.9 				"/>
			</g>
			<g>
				<polygon class="st5" points="8.7,17.9 4.5,17.9 7.8,14.6 8.7,14.6 				"/>
				
					<linearGradient id="SVGID_00000120531153844335155600000001075832284695803576_" gradientUnits="userSpaceOnUse" x1="9.733" y1="16.2376" x2="6.6776" y2="16.2376">
					<stop  offset="0" style="stop-color:#FFFFFF"/>
					<stop  offset="0.9941" style="stop-color:#000000;stop-opacity:0"/>
				</linearGradient>
				<polygon style="opacity:0.35;fill:url(#SVGID_00000120531153844335155600000001075832284695803576_);" points="8.7,17.9 
					4.5,17.9 7.8,14.6 8.7,14.6 				"/>
				
					<linearGradient id="SVGID_00000122709081235322399600000017222206040473947030_" gradientUnits="userSpaceOnUse" x1="6.6193" y1="18.9209" x2="6.6193" y2="15.3279">
					<stop  offset="5.922192e-03" style="stop-color:#000000"/>
					<stop  offset="1" style="stop-color:#FFFFFF;stop-opacity:0"/>
				</linearGradient>
				<polygon style="opacity:0.35;fill:url(#SVGID_00000122709081235322399600000017222206040473947030_);" points="8.7,17.9 
					4.5,17.9 7.8,14.6 8.7,14.6 				"/>
			</g>
			<g>
				<polygon class="st8" points="8.7,14.6 8.7,23 12,23 12,17.9 				"/>
				
					<linearGradient id="SVGID_00000071533329199114293820000004337135981433826201_" gradientUnits="userSpaceOnUse" x1="10.35" y1="16.4029" x2="10.35" y2="20.3218">
					<stop  offset="0" style="stop-color:#FFFFFF"/>
					<stop  offset="0.9941" style="stop-color:#000000;stop-opacity:0"/>
				</linearGradient>
				<polygon style="opacity:0.35;fill:url(#SVGID_00000071533329199114293820000004337135981433826201_);" points="8.7,14.6 8.7,23 
					12,23 12,17.9 				"/>
				
					<linearGradient id="SVGID_00000157295883164065061500000008975790111995411609_" gradientUnits="userSpaceOnUse" x1="10.35" y1="23.6212" x2="10.35" y2="18.9007">
					<stop  offset="5.922192e-03" style="stop-color:#000000"/>
					<stop  offset="1" style="stop-color:#FFFFFF;stop-opacity:0"/>
				</linearGradient>
				<polygon style="opacity:0.35;fill:url(#SVGID_00000157295883164065061500000008975790111995411609_);" points="8.7,14.6 8.7,23 
					12,23 12,17.9 				"/>
			</g>
			<g>
				<polygon class="st2" points="8.7,23 12.9,23 12.9,26.3 12,26.3 				"/>
				
					<linearGradient id="SVGID_00000161623245370975319380000004028655856507196824_" gradientUnits="userSpaceOnUse" x1="10.8164" y1="22.3119" x2="10.8164" y2="25.3717">
					<stop  offset="0" style="stop-color:#FFFFFF"/>
					<stop  offset="0.9941" style="stop-color:#000000;stop-opacity:0"/>
				</linearGradient>
				<polygon style="opacity:0.35;fill:url(#SVGID_00000161623245370975319380000004028655856507196824_);" points="8.7,23 12.9,23 
					12.9,26.3 12,26.3 				"/>
				
					<linearGradient id="SVGID_00000070805881413014642420000005978320425128927919_" gradientUnits="userSpaceOnUse" x1="13.6551" y1="25.1116" x2="10.7006" y2="23.9365">
					<stop  offset="5.922192e-03" style="stop-color:#000000"/>
					<stop  offset="1" style="stop-color:#FFFFFF;stop-opacity:0"/>
				</linearGradient>
				<polygon style="opacity:0.35;fill:url(#SVGID_00000070805881413014642420000005978320425128927919_);" points="8.7,23 12.9,23 
					12.9,26.3 12,26.3 				"/>
			</g>
			<g>
				<polygon class="st5" points="12.9,26.3 16.2,23 16.2,17.9 12.9,17.9 				"/>
				
					<linearGradient id="SVGID_00000078020653415088135520000003321927707021334442_" gradientUnits="userSpaceOnUse" x1="12.8896" y1="22.0668" x2="15.4181" y2="22.0668">
					<stop  offset="0" style="stop-color:#FFFFFF"/>
					<stop  offset="0.9941" style="stop-color:#000000;stop-opacity:0"/>
				</linearGradient>
				<polygon style="opacity:0.35;fill:url(#SVGID_00000078020653415088135520000003321927707021334442_);" points="12.9,26.3 
					16.2,23 16.2,17.9 12.9,17.9 				"/>
				
					<linearGradient id="SVGID_00000008120983787348555980000008149242976533390499_" gradientUnits="userSpaceOnUse" x1="14.5471" y1="17.0542" x2="14.5471" y2="24.0936">
					<stop  offset="5.922192e-03" style="stop-color:#000000"/>
					<stop  offset="1" style="stop-color:#FFFFFF;stop-opacity:0"/>
				</linearGradient>
				<polygon style="opacity:0.35;fill:url(#SVGID_00000008120983787348555980000008149242976533390499_);" points="12.9,26.3 
					16.2,23 16.2,17.9 12.9,17.9 				"/>
			</g>
			<g>
				<polygon class="st8" points="12.9,17.9 17.1,17.9 17.1,14.6 16.2,14.6 				"/>
				
					<linearGradient id="SVGID_00000107590122941060232120000015729122860037311398_" gradientUnits="userSpaceOnUse" x1="17.6564" y1="16.2376" x2="14.7327" y2="16.2376">
					<stop  offset="0" style="stop-color:#FFFFFF"/>
					<stop  offset="0.9941" style="stop-color:#000000;stop-opacity:0"/>
				</linearGradient>
				<polygon style="opacity:0.35;fill:url(#SVGID_00000107590122941060232120000015729122860037311398_);" points="12.9,17.9 
					17.1,17.9 17.1,14.6 16.2,14.6 				"/>
				
					<linearGradient id="SVGID_00000157299931681621618820000011083780597318382978_" gradientUnits="userSpaceOnUse" x1="15.0134" y1="18.2243" x2="15.0134" y2="16.0551">
					<stop  offset="5.922192e-03" style="stop-color:#000000"/>
					<stop  offset="1" style="stop-color:#FFFFFF;stop-opacity:0"/>
				</linearGradient>
				<polygon style="opacity:0.35;fill:url(#SVGID_00000157299931681621618820000011083780597318382978_);" points="12.9,17.9 
					17.1,17.9 17.1,14.6 16.2,14.6 				"/>
			</g>
			<g>
				<polygon class="st8" points="17.1,14.6 17.1,24.9 20.4,24.9 20.4,17.9 				"/>
				
					<linearGradient id="SVGID_00000071557153067543833640000017262631005909016509_" gradientUnits="userSpaceOnUse" x1="18.7441" y1="15.6055" x2="18.7441" y2="22.3658">
					<stop  offset="0" style="stop-color:#FFFFFF"/>
					<stop  offset="0.9941" style="stop-color:#000000;stop-opacity:0"/>
				</linearGradient>
				<polygon style="opacity:0.35;fill:url(#SVGID_00000071557153067543833640000017262631005909016509_);" points="17.1,14.6 
					17.1,24.9 20.4,24.9 20.4,17.9 				"/>
				
					<linearGradient id="SVGID_00000000209391894547968260000005585302790383555997_" gradientUnits="userSpaceOnUse" x1="18.7441" y1="25.1236" x2="18.7441" y2="22.1271">
					<stop  offset="5.922192e-03" style="stop-color:#000000"/>
					<stop  offset="1" style="stop-color:#FFFFFF;stop-opacity:0"/>
				</linearGradient>
				<polygon style="opacity:0.35;fill:url(#SVGID_00000000209391894547968260000005585302790383555997_);" points="17.1,14.6 
					17.1,24.9 20.4,24.9 20.4,17.9 				"/>
			</g>
			<g>
				<polygon class="st2" points="17.1,24.9 22.4,24.9 22.4,28.1 20.4,28.1 				"/>
				
					<linearGradient id="SVGID_00000101073311368040334980000005310832319080310426_" gradientUnits="userSpaceOnUse" x1="19.7624" y1="24.1772" x2="19.7624" y2="27.237">
					<stop  offset="0" style="stop-color:#FFFFFF"/>
					<stop  offset="0.9941" style="stop-color:#000000;stop-opacity:0"/>
				</linearGradient>
				<polygon style="opacity:0.35;fill:url(#SVGID_00000101073311368040334980000005310832319080310426_);" points="17.1,24.9 
					22.4,24.9 22.4,28.1 20.4,28.1 				"/>
				
					<linearGradient id="SVGID_00000181772732582744094540000007488128802101853883_" gradientUnits="userSpaceOnUse" x1="23.1267" y1="27.1859" x2="19.5787" y2="25.7748">
					<stop  offset="5.922192e-03" style="stop-color:#000000"/>
					<stop  offset="1" style="stop-color:#FFFFFF;stop-opacity:0"/>
				</linearGradient>
				<polygon style="opacity:0.35;fill:url(#SVGID_00000181772732582744094540000007488128802101853883_);" points="17.1,24.9 
					22.4,24.9 22.4,28.1 20.4,28.1 				"/>
			</g>
			<g>
				<polygon class="st21" points="22.4,28.1 25.7,24.6 25.7,17.9 22.4,14.6 				"/>
				
					<linearGradient id="SVGID_00000119115626639419400260000003425474877343274368_" gradientUnits="userSpaceOnUse" x1="22.3876" y1="21.3673" x2="24.9161" y2="21.3673">
					<stop  offset="0" style="stop-color:#FFFFFF"/>
					<stop  offset="0.9941" style="stop-color:#000000;stop-opacity:0"/>
				</linearGradient>
				<polygon style="opacity:0.35;fill:url(#SVGID_00000119115626639419400260000003425474877343274368_);" points="22.4,28.1 
					25.7,24.6 25.7,17.9 22.4,14.6 				"/>
				
					<linearGradient id="SVGID_00000044875783608449484270000011545858261029546681_" gradientUnits="userSpaceOnUse" x1="24.0451" y1="13.2914" x2="24.0451" y2="24.6327">
					<stop  offset="5.922192e-03" style="stop-color:#000000"/>
					<stop  offset="1" style="stop-color:#FFFFFF;stop-opacity:0"/>
				</linearGradient>
				<polygon style="opacity:0.35;fill:url(#SVGID_00000044875783608449484270000011545858261029546681_);" points="22.4,28.1 
					25.7,24.6 25.7,17.9 22.4,14.6 				"/>
			</g>
			<g>
				<polygon class="st24" points="25.7,17.9 29.4,17.9 29.4,14.6 22.4,14.6 				"/>
				
					<linearGradient id="SVGID_00000141431660902255103130000018303426046153551794_" gradientUnits="userSpaceOnUse" x1="25.9105" y1="15.3044" x2="25.9105" y2="16.8285">
					<stop  offset="0" style="stop-color:#FFFFFF"/>
					<stop  offset="0.9941" style="stop-color:#000000;stop-opacity:0"/>
				</linearGradient>
				<polygon style="opacity:0.35;fill:url(#SVGID_00000141431660902255103130000018303426046153551794_);" points="25.7,17.9 
					29.4,17.9 29.4,14.6 22.4,14.6 				"/>
				
					<linearGradient id="SVGID_00000013875791478423226810000013794109604914227620_" gradientUnits="userSpaceOnUse" x1="30.0144" y1="16.2376" x2="25.2542" y2="16.2376">
					<stop  offset="5.922192e-03" style="stop-color:#000000"/>
					<stop  offset="1" style="stop-color:#FFFFFF;stop-opacity:0"/>
				</linearGradient>
				<polygon style="opacity:0.35;fill:url(#SVGID_00000013875791478423226810000013794109604914227620_);" points="25.7,17.9 
					29.4,17.9 29.4,14.6 22.4,14.6 				"/>
			</g>
			<g>
				<polygon class="st24" points="29.4,14.6 29.4,24.9 32.7,24.9 32.7,17.9 				"/>
				
					<linearGradient id="SVGID_00000036232219309475434490000001180682037211944893_" gradientUnits="userSpaceOnUse" x1="31.0402" y1="16.8023" x2="31.0402" y2="21.5921">
					<stop  offset="0" style="stop-color:#FFFFFF"/>
					<stop  offset="0.9941" style="stop-color:#000000;stop-opacity:0"/>
				</linearGradient>
				<polygon style="opacity:0.35;fill:url(#SVGID_00000036232219309475434490000001180682037211944893_);" points="29.4,14.6 
					29.4,24.9 32.7,24.9 32.7,17.9 				"/>
				
					<linearGradient id="SVGID_00000016069317154750382480000009544494758517452931_" gradientUnits="userSpaceOnUse" x1="31.0402" y1="25.6247" x2="31.0402" y2="19.8552">
					<stop  offset="5.922192e-03" style="stop-color:#000000"/>
					<stop  offset="1" style="stop-color:#FFFFFF;stop-opacity:0"/>
				</linearGradient>
				<polygon style="opacity:0.35;fill:url(#SVGID_00000016069317154750382480000009544494758517452931_);" points="29.4,14.6 
					29.4,24.9 32.7,24.9 32.7,17.9 				"/>
			</g>
			<g>
				<polygon class="st24" points="32.7,24.9 26.1,24.9 26.1,28.1 29.4,28.1 				"/>
				
					<linearGradient id="SVGID_00000142178459191340925810000013486399120883941786_" gradientUnits="userSpaceOnUse" x1="29.408" y1="24.1772" x2="29.408" y2="27.237">
					<stop  offset="0" style="stop-color:#FFFFFF"/>
					<stop  offset="0.9941" style="stop-color:#000000;stop-opacity:0"/>
				</linearGradient>
				<polygon style="opacity:0.35;fill:url(#SVGID_00000142178459191340925810000013486399120883941786_);" points="32.7,24.9 
					26.1,24.9 26.1,28.1 29.4,28.1 				"/>
				
					<linearGradient id="SVGID_00000088852599906630627870000018429759757442116529_" gradientUnits="userSpaceOnUse" x1="29.408" y1="27.8388" x2="29.408" y2="24.8255">
					<stop  offset="5.922192e-03" style="stop-color:#000000"/>
					<stop  offset="1" style="stop-color:#FFFFFF;stop-opacity:0"/>
				</linearGradient>
				<polygon style="opacity:0.35;fill:url(#SVGID_00000088852599906630627870000018429759757442116529_);" points="32.7,24.9 
					26.1,24.9 26.1,28.1 29.4,28.1 				"/>
			</g>
		</g>
	</g>
	<g>
		<defs>
			<polygon id="SVGID_00000040544602570087806610000005490121138509169846_" points="8.2,24.9 4.9,28.1 4.9,17.9 8.2,17.9 			"/>
		</defs>
		<clipPath id="SVGID_00000060745292129374647420000014480250836789330350_">
			<use xlink:href="#SVGID_00000040544602570087806610000005490121138509169846_"  style="overflow:visible;"/>
		</clipPath>
	</g>
</g>
</svg>
